<svg xmlns="http://www.w3.org/2000/svg" version="1.1" xmlns:xlink="http://www.w3.org/1999/xlink" xmlns:svgjs="http://svgjs.dev/svgjs" width="1440" height="560" preserveAspectRatio="none" viewBox="0 0 1440 560"><g mask="url(&quot;#SvgjsMask1005&quot;)" fill="none"><rect width="1440" height="560" x="0" y="0" fill="rgba(26, 26, 26, 1)"></rect><path d="M203.31 381.75L268.26 419.25L268.26 494.25L203.31 531.75L138.35 494.25L138.35 419.25zM398.17 44.25L463.12 81.75L463.12 156.75L398.17 194.25L333.22 156.75L333.22 81.75zM398.17 269.25L463.12 306.75L463.12 381.75L398.17 419.25L333.22 381.75L333.22 306.75zM463.12 381.75L528.08 419.25L528.08 494.25L463.12 531.75L398.17 494.25L398.17 419.25zM593.03 -68.25L657.98 -30.75L657.98 44.25L593.03 81.75L528.08 44.25L528.08 -30.75zM722.94 -68.25L787.89 -30.75L787.89 44.25L722.94 81.75L657.98 44.25L657.98 -30.75zM787.89 44.25L852.85 81.75L852.85 156.75L787.89 194.25L722.94 156.75L722.94 81.75zM852.84 -68.25L917.8 -30.75L917.8 44.25L852.84 81.75L787.89 44.25L787.89 -30.75zM1047.71 494.25L1112.66 531.75L1112.66 606.75L1047.71 644.25L982.75 606.75L982.75 531.75zM1112.66 156.75L1177.61 194.25L1177.61 269.25L1112.66 306.75L1047.71 269.25L1047.71 194.25zM1177.61 269.25L1242.57 306.75L1242.57 381.75L1177.61 419.25L1112.66 381.75L1112.66 306.75zM1112.66 381.75L1177.61 419.25L1177.61 494.25L1112.66 531.75L1047.71 494.25L1047.71 419.25zM1242.57 381.75L1307.52 419.25L1307.52 494.25L1242.57 531.75L1177.61 494.25L1177.61 419.25z" stroke="rgba(51, 51, 51, 1)" stroke-width="2"></path><path d="M195.81 381.75 a7.5 7.5 0 1 0 15 0 a7.5 7.5 0 1 0 -15 0zM260.76 419.25 a7.5 7.5 0 1 0 15 0 a7.5 7.5 0 1 0 -15 0zM260.76 494.25 a7.5 7.5 0 1 0 15 0 a7.5 7.5 0 1 0 -15 0zM195.81 531.75 a7.5 7.5 0 1 0 15 0 a7.5 7.5 0 1 0 -15 0zM130.85 494.25 a7.5 7.5 0 1 0 15 0 a7.5 7.5 0 1 0 -15 0zM130.85 419.25 a7.5 7.5 0 1 0 15 0 a7.5 7.5 0 1 0 -15 0zM390.67 44.25 a7.5 7.5 0 1 0 15 0 a7.5 7.5 0 1 0 -15 0zM455.62 81.75 a7.5 7.5 0 1 0 15 0 a7.5 7.5 0 1 0 -15 0zM455.62 156.75 a7.5 7.5 0 1 0 15 0 a7.5 7.5 0 1 0 -15 0zM390.67 194.25 a7.5 7.5 0 1 0 15 0 a7.5 7.5 0 1 0 -15 0zM325.72 156.75 a7.5 7.5 0 1 0 15 0 a7.5 7.5 0 1 0 -15 0zM325.72 81.75 a7.5 7.5 0 1 0 15 0 a7.5 7.5 0 1 0 -15 0zM390.67 269.25 a7.5 7.5 0 1 0 15 0 a7.5 7.5 0 1 0 -15 0zM455.62 306.75 a7.5 7.5 0 1 0 15 0 a7.5 7.5 0 1 0 -15 0zM455.62 381.75 a7.5 7.5 0 1 0 15 0 a7.5 7.5 0 1 0 -15 0zM390.67 419.25 a7.5 7.5 0 1 0 15 0 a7.5 7.5 0 1 0 -15 0zM325.72 381.75 a7.5 7.5 0 1 0 15 0 a7.5 7.5 0 1 0 -15 0zM325.72 306.75 a7.5 7.5 0 1 0 15 0 a7.5 7.5 0 1 0 -15 0zM520.58 419.25 a7.5 7.5 0 1 0 15 0 a7.5 7.5 0 1 0 -15 0zM520.58 494.25 a7.5 7.5 0 1 0 15 0 a7.5 7.5 0 1 0 -15 0zM455.62 531.75 a7.5 7.5 0 1 0 15 0 a7.5 7.5 0 1 0 -15 0zM390.67 494.25 a7.5 7.5 0 1 0 15 0 a7.5 7.5 0 1 0 -15 0zM585.53 -68.25 a7.5 7.5 0 1 0 15 0 a7.5 7.5 0 1 0 -15 0zM650.48 -30.75 a7.5 7.5 0 1 0 15 0 a7.5 7.5 0 1 0 -15 0zM650.48 44.25 a7.5 7.5 0 1 0 15 0 a7.5 7.5 0 1 0 -15 0zM585.53 81.75 a7.5 7.5 0 1 0 15 0 a7.5 7.5 0 1 0 -15 0zM520.58 44.25 a7.5 7.5 0 1 0 15 0 a7.5 7.5 0 1 0 -15 0zM520.58 -30.75 a7.5 7.5 0 1 0 15 0 a7.5 7.5 0 1 0 -15 0zM715.44 -68.25 a7.5 7.5 0 1 0 15 0 a7.5 7.5 0 1 0 -15 0zM780.39 -30.75 a7.5 7.5 0 1 0 15 0 a7.5 7.5 0 1 0 -15 0zM780.39 44.25 a7.5 7.5 0 1 0 15 0 a7.5 7.5 0 1 0 -15 0zM715.44 81.75 a7.5 7.5 0 1 0 15 0 a7.5 7.5 0 1 0 -15 0zM845.35 81.75 a7.5 7.5 0 1 0 15 0 a7.5 7.5 0 1 0 -15 0zM845.35 156.75 a7.5 7.5 0 1 0 15 0 a7.5 7.5 0 1 0 -15 0zM780.39 194.25 a7.5 7.5 0 1 0 15 0 a7.5 7.5 0 1 0 -15 0zM715.44 156.75 a7.5 7.5 0 1 0 15 0 a7.5 7.5 0 1 0 -15 0zM845.34 -68.25 a7.5 7.5 0 1 0 15 0 a7.5 7.5 0 1 0 -15 0zM910.3 -30.75 a7.5 7.5 0 1 0 15 0 a7.5 7.5 0 1 0 -15 0zM910.3 44.25 a7.5 7.5 0 1 0 15 0 a7.5 7.5 0 1 0 -15 0zM845.34 81.75 a7.5 7.5 0 1 0 15 0 a7.5 7.5 0 1 0 -15 0zM1040.21 494.25 a7.5 7.5 0 1 0 15 0 a7.5 7.5 0 1 0 -15 0zM1105.16 531.75 a7.5 7.5 0 1 0 15 0 a7.5 7.5 0 1 0 -15 0zM1105.16 606.75 a7.5 7.5 0 1 0 15 0 a7.5 7.5 0 1 0 -15 0zM1040.21 644.25 a7.5 7.5 0 1 0 15 0 a7.5 7.5 0 1 0 -15 0zM975.25 606.75 a7.5 7.5 0 1 0 15 0 a7.5 7.5 0 1 0 -15 0zM975.25 531.75 a7.5 7.5 0 1 0 15 0 a7.5 7.5 0 1 0 -15 0zM1105.16 156.75 a7.5 7.5 0 1 0 15 0 a7.5 7.5 0 1 0 -15 0zM1170.11 194.25 a7.5 7.5 0 1 0 15 0 a7.5 7.5 0 1 0 -15 0zM1170.11 269.25 a7.5 7.5 0 1 0 15 0 a7.5 7.5 0 1 0 -15 0zM1105.16 306.75 a7.5 7.5 0 1 0 15 0 a7.5 7.5 0 1 0 -15 0zM1040.21 269.25 a7.5 7.5 0 1 0 15 0 a7.5 7.5 0 1 0 -15 0zM1040.21 194.25 a7.5 7.5 0 1 0 15 0 a7.5 7.5 0 1 0 -15 0zM1235.07 306.75 a7.5 7.5 0 1 0 15 0 a7.5 7.5 0 1 0 -15 0zM1235.07 381.75 a7.5 7.5 0 1 0 15 0 a7.5 7.5 0 1 0 -15 0zM1170.11 419.25 a7.5 7.5 0 1 0 15 0 a7.5 7.5 0 1 0 -15 0zM1105.16 381.75 a7.5 7.5 0 1 0 15 0 a7.5 7.5 0 1 0 -15 0zM1170.11 494.25 a7.5 7.5 0 1 0 15 0 a7.5 7.5 0 1 0 -15 0zM1040.21 419.25 a7.5 7.5 0 1 0 15 0 a7.5 7.5 0 1 0 -15 0zM1300.02 419.25 a7.5 7.5 0 1 0 15 0 a7.5 7.5 0 1 0 -15 0zM1300.02 494.25 a7.5 7.5 0 1 0 15 0 a7.5 7.5 0 1 0 -15 0zM1235.07 531.75 a7.5 7.5 0 1 0 15 0 a7.5 7.5 0 1 0 -15 0z" fill="rgba(51, 51, 51, 1)"></path><path d="M20.63 -6.63L63.93 18.37L63.93 68.37L20.63 93.37L-22.67 68.37L-22.67 18.37zM20.63 443.37L63.93 468.37L63.93 518.37L20.63 543.37L-22.67 518.37L-22.67 468.37zM107.23 -6.63L150.54 18.37L150.54 68.37L107.23 93.37L63.93 68.37L63.93 18.37zM150.54 68.37L193.84 93.37L193.84 143.37L150.54 168.37L107.23 143.37L107.23 93.37zM150.54 218.37L193.84 243.37L193.84 293.37L150.54 318.37L107.23 293.37L107.23 243.37zM150.54 368.37L193.84 393.37L193.84 443.37L150.54 468.37L107.23 443.37L107.23 393.37zM193.84 143.37L237.14 168.37L237.14 218.37L193.84 243.37L150.54 218.37L150.54 168.37zM280.44 -6.63L323.75 18.37L323.75 68.37L280.44 93.37L237.14 68.37L237.14 18.37zM323.75 68.37L367.05 93.37L367.05 143.37L323.75 168.37L280.44 143.37L280.44 93.37zM280.44 143.37L323.75 168.37L323.75 218.37L280.44 243.37L237.14 218.37L237.14 168.37zM280.44 293.37L323.75 318.37L323.75 368.37L280.44 393.37L237.14 368.37L237.14 318.37zM280.44 443.37L323.75 468.37L323.75 518.37L280.44 543.37L237.14 518.37L237.14 468.37zM410.35 68.37L453.66 93.37L453.66 143.37L410.35 168.37L367.05 143.37L367.05 93.37zM367.05 143.37L410.35 168.37L410.35 218.37L367.05 243.37L323.75 218.37L323.75 168.37zM410.35 218.37L453.66 243.37L453.66 293.37L410.35 318.37L367.05 293.37L367.05 243.37zM367.05 293.37L410.35 318.37L410.35 368.37L367.05 393.37L323.75 368.37L323.75 318.37zM410.35 368.37L453.66 393.37L453.66 443.37L410.35 468.37L367.05 443.37L367.05 393.37zM367.05 443.37L410.35 468.37L410.35 518.37L367.05 543.37L323.75 518.37L323.75 468.37zM453.66 -6.63L496.96 18.37L496.96 68.37L453.66 93.37L410.35 68.37L410.35 18.37zM496.96 68.37L540.26 93.37L540.26 143.37L496.96 168.37L453.66 143.37L453.66 93.37zM453.66 143.37L496.96 168.37L496.96 218.37L453.66 243.37L410.35 218.37L410.35 168.37zM453.66 293.37L496.96 318.37L496.96 368.37L453.66 393.37L410.35 368.37L410.35 318.37zM540.26 143.37L583.56 168.37L583.56 218.37L540.26 243.37L496.96 218.37L496.96 168.37zM540.26 293.37L583.56 318.37L583.56 368.37L540.26 393.37L496.96 368.37L496.96 318.37zM626.87 -6.63L670.17 18.37L670.17 68.37L626.87 93.37L583.56 68.37L583.56 18.37zM626.87 293.37L670.17 318.37L670.17 368.37L626.87 393.37L583.56 368.37L583.56 318.37zM670.17 368.37L713.47 393.37L713.47 443.37L670.17 468.37L626.87 443.37L626.87 393.37zM670.17 518.37L713.47 543.37L713.47 593.37L670.17 618.37L626.87 593.37L626.87 543.37zM756.77 68.37L800.08 93.37L800.08 143.37L756.77 168.37L713.47 143.37L713.47 93.37zM756.77 368.37L800.08 393.37L800.08 443.37L756.77 468.37L713.47 443.37L713.47 393.37zM756.77 518.37L800.08 543.37L800.08 593.37L756.77 618.37L713.47 593.37L713.47 543.37zM800.08 -6.63L843.38 18.37L843.38 68.37L800.08 93.37L756.77 68.37L756.77 18.37zM843.38 368.37L886.68 393.37L886.68 443.37L843.38 468.37L800.08 443.37L800.08 393.37zM800.08 443.37L843.38 468.37L843.38 518.37L800.08 543.37L756.77 518.37L756.77 468.37zM843.38 518.37L886.68 543.37L886.68 593.37L843.38 618.37L800.08 593.37L800.08 543.37zM929.98 68.37L973.29 93.37L973.29 143.37L929.98 168.37L886.68 143.37L886.68 93.37zM929.98 368.37L973.29 393.37L973.29 443.37L929.98 468.37L886.68 443.37L886.68 393.37zM1016.59 218.37L1059.89 243.37L1059.89 293.37L1016.59 318.37L973.29 293.37L973.29 243.37zM973.29 293.37L1016.59 318.37L1016.59 368.37L973.29 393.37L929.98 368.37L929.98 318.37zM1016.59 518.37L1059.89 543.37L1059.89 593.37L1016.59 618.37L973.29 593.37L973.29 543.37zM1059.89 -6.63L1103.19 18.37L1103.19 68.37L1059.89 93.37L1016.59 68.37L1016.59 18.37zM1103.19 68.37L1146.5 93.37L1146.5 143.37L1103.19 168.37L1059.89 143.37L1059.89 93.37zM1059.89 143.37L1103.19 168.37L1103.19 218.37L1059.89 243.37L1016.59 218.37L1016.59 168.37zM1103.19 368.37L1146.5 393.37L1146.5 443.37L1103.19 468.37L1059.89 443.37L1059.89 393.37zM1059.89 443.37L1103.19 468.37L1103.19 518.37L1059.89 543.37L1016.59 518.37L1016.59 468.37zM1146.5 143.37L1189.8 168.37L1189.8 218.37L1146.5 243.37L1103.19 218.37L1103.19 168.37zM1276.4 68.37L1319.71 93.37L1319.71 143.37L1276.4 168.37L1233.1 143.37L1233.1 93.37zM1233.1 293.37L1276.4 318.37L1276.4 368.37L1233.1 393.37L1189.8 368.37L1189.8 318.37zM1233.1 443.37L1276.4 468.37L1276.4 518.37L1233.1 543.37L1189.8 518.37L1189.8 468.37zM1319.71 -6.63L1363.01 18.37L1363.01 68.37L1319.71 93.37L1276.4 68.37L1276.4 18.37zM1319.71 143.37L1363.01 168.37L1363.01 218.37L1319.71 243.37L1276.4 218.37L1276.4 168.37zM1319.71 293.37L1363.01 318.37L1363.01 368.37L1319.71 393.37L1276.4 368.37L1276.4 318.37zM1319.71 443.37L1363.01 468.37L1363.01 518.37L1319.71 543.37L1276.4 518.37L1276.4 468.37zM1363.01 518.37L1406.31 543.37L1406.31 593.37L1363.01 618.37L1319.71 593.37L1319.71 543.37zM1406.31 -6.63L1449.61 18.37L1449.61 68.37L1406.31 93.37L1363.01 68.37L1363.01 18.37zM1449.61 218.37L1492.92 243.37L1492.92 293.37L1449.61 318.37L1406.31 293.37L1406.31 243.37zM1449.61 518.37L1492.92 543.37L1492.92 593.37L1449.61 618.37L1406.31 593.37L1406.31 543.37z" stroke="rgba(34, 34, 34, 1)" stroke-width="2"></path></g><defs><mask id="SvgjsMask1005"><rect width="1440" height="560" fill="#ffffff"></rect></mask></defs></svg>